<svg width="128" height="103" viewBox="0 0 128 103" fill="none" xmlns="http://www.w3.org/2000/svg">
<rect x="1.10503" y="37" width="104.617" height="2.62364" transform="rotate(18.4074 1.10503 37)" fill="#C81D6F"/>
<path d="M30.896 48.5235C30.2089 50.5881 29.0761 51.9143 27.4978 52.502C25.9397 53.1301 23.8551 53.0097 21.2439 52.1407L11.7707 48.988L12.9075 45.5722L22.8361 48.8765C23.9292 49.2402 24.8197 49.3005 25.5077 49.0573C26.1957 48.8141 26.6509 48.3585 26.8732 47.6906L27.3582 46.2331C27.5906 45.5348 27.4992 44.8973 27.084 44.3207C26.679 43.7138 25.9299 43.2284 24.8369 42.8646L16.9577 40.2425L19.0494 33.9574C18.2293 33.0774 17.7481 32.0404 17.6059 30.8464C17.4637 29.6524 17.6654 28.2356 18.211 26.596L18.5899 25.4574C19.4387 22.9069 20.6776 21.2619 22.3064 20.5225C23.9656 19.7931 26.116 19.8679 28.7576 20.747L38.3218 23.93L35.5178 32.3557C34.7599 34.6329 33.5413 36.2171 31.8619 37.1084C30.1927 37.9694 28.3257 38.0563 26.261 37.3692L22.6175 36.1566L21.9658 38.115L25.5182 39.2973C28.1294 40.1663 29.8705 41.319 30.7414 42.7555C31.6528 44.1718 31.765 45.9123 31.0779 47.9769L30.896 48.5235ZM27.3978 33.9534C28.3391 34.2666 29.1536 34.2004 29.8415 33.7549C30.5294 33.3093 31.0149 32.7626 31.2979 32.1148L33.3138 26.0575L27.1653 24.0113C26.0419 23.6374 25.1059 23.6126 24.3572 23.9367C23.6085 24.2609 23.0776 24.8936 22.7643 25.8349L21.7791 28.7952C21.4659 29.7365 21.5118 30.5612 21.9169 31.2693C22.322 31.9775 23.0863 32.5185 24.2097 32.8924L27.3978 33.9534ZM50.1013 53.1444C49.069 52.8008 48.2794 52.1333 47.7325 51.1419C47.2159 50.1606 47.2203 48.8805 47.7458 47.3016L55.7032 23.391L49.0082 21.1629L50.145 17.7471L60.7112 21.2635L51.6928 48.3623C51.5311 48.8481 51.5364 49.2377 51.7086 49.531C51.8807 49.8244 52.2553 50.0671 52.8321 50.2591L58.8895 52.275L57.7527 55.6908L50.1013 53.1444ZM76.5187 61.9361C74.9702 61.4207 73.9528 60.5256 73.4664 59.2508C72.9801 57.9761 73.0097 56.5189 73.5554 54.8793L78.1783 40.9883L73.8516 39.5484L74.9884 36.1326L79.3151 37.5725L81.1339 32.1072L85.0052 33.3956L83.1863 38.8609L89.8358 41.0738L88.699 44.4896L82.0495 42.2767L77.3509 56.3953C77.1286 57.0633 77.1389 57.5895 77.382 57.9739C77.625 58.3584 78.0957 58.6668 78.7941 58.8992L83.394 60.43L82.2572 63.8458L76.5187 61.9361ZM97.7422 65.2051L103.047 49.2646L99.7224 48.1582L100.859 44.7424L107.827 47.0614L107.418 48.2911C108.693 47.8048 110.044 47.799 111.471 48.274L116.162 49.8351L114.949 53.4787L109.803 51.7659C108.831 51.4426 107.997 51.5189 107.299 51.9948C106.611 52.4404 106.145 52.9769 105.903 53.6045L101.613 66.4934L106.578 68.1455L105.441 71.5614L93.2807 67.5144L94.4175 64.0986L97.7422 65.2051Z" fill="black"/>
</svg>
